<svg width="34" height="34" viewBox="0 0 34 34" fill="none" xmlns="http://www.w3.org/2000/svg">
<path fill-rule="evenodd" clip-rule="evenodd" d="M31.1668 16.9997C31.1668 24.8237 24.8242 31.1663 17.0002 31.1663C9.17613 31.1663 2.8335 24.8237 2.8335 16.9997C2.8335 9.17564 9.17613 2.83301 17.0002 2.83301C24.8242 2.83301 31.1668 9.17564 31.1668 16.9997ZM19.1082 9.13138C19.6751 9.28325 20.0114 9.86586 19.8595 10.4327L16.1929 24.1166C16.0411 24.6834 15.4585 25.0198 14.8917 24.8679C14.3248 24.716 13.9885 24.1334 14.1404 23.5666L17.807 9.88268C17.9588 9.31587 18.5414 8.9795 19.1082 9.13138ZM21.2072 11.9984C21.6221 11.5834 22.2949 11.5834 22.7098 11.9984L23.0049 12.2935C23.905 13.1935 24.6556 13.944 25.1713 14.6199C25.7156 15.3334 26.0974 16.0872 26.0974 16.9997C26.0974 17.9122 25.7156 18.666 25.1713 19.3794C24.6556 20.0553 23.905 20.8058 23.005 21.7058L22.7098 22.001C22.2949 22.4159 21.6221 22.4159 21.2072 22.001C20.7923 21.586 20.7923 20.9133 21.2072 20.4984L21.4503 20.2553C22.4159 19.2896 23.063 18.6394 23.4818 18.0904C23.882 17.566 23.9724 17.2608 23.9724 16.9997C23.9724 16.7386 23.882 16.4333 23.4818 15.9089C23.063 15.36 22.4159 14.7097 21.4503 13.744L21.2072 13.501C20.7923 13.086 20.7923 12.4133 21.2072 11.9984ZM11.2908 11.9984C11.7057 11.5834 12.3785 11.5834 12.7934 11.9984C13.2083 12.4133 13.2083 13.086 12.7934 13.501L12.5503 13.744C11.5847 14.7097 10.9376 15.36 10.5187 15.9089C10.1186 16.4333 10.0282 16.7386 10.0282 16.9997C10.0282 17.2608 10.1186 17.566 10.5187 18.0904C10.9376 18.6394 11.5847 19.2896 12.5503 20.2553L12.7934 20.4984C13.2083 20.9133 13.2083 21.586 12.7934 22.001C12.3785 22.4159 11.7057 22.4159 11.2908 22.001L10.9956 21.7058C10.0956 20.8058 9.34503 20.0553 8.82932 19.3794C8.28499 18.666 7.9032 17.9122 7.9032 16.9997C7.9032 16.0872 8.28499 15.3334 8.82932 14.6199C9.34503 13.944 10.0956 13.1935 10.9956 12.2935L11.2908 11.9984Z" fill="#00A884" fill-opacity="0.6"/>
<path fill-rule="evenodd" clip-rule="evenodd" d="M31.1668 16.9997C31.1668 24.8237 24.8242 31.1663 17.0002 31.1663C9.17613 31.1663 2.8335 24.8237 2.8335 16.9997C2.8335 9.17564 9.17613 2.83301 17.0002 2.83301C24.8242 2.83301 31.1668 9.17564 31.1668 16.9997ZM19.1082 9.13138C19.6751 9.28325 20.0114 9.86586 19.8595 10.4327L16.1929 24.1166C16.0411 24.6834 15.4585 25.0198 14.8917 24.8679C14.3248 24.716 13.9885 24.1334 14.1404 23.5666L17.807 9.88268C17.9588 9.31587 18.5414 8.9795 19.1082 9.13138ZM21.2072 11.9984C21.6221 11.5834 22.2949 11.5834 22.7098 11.9984L23.0049 12.2935C23.905 13.1935 24.6556 13.944 25.1713 14.6199C25.7156 15.3334 26.0974 16.0872 26.0974 16.9997C26.0974 17.9122 25.7156 18.666 25.1713 19.3794C24.6556 20.0553 23.905 20.8058 23.005 21.7058L22.7098 22.001C22.2949 22.4159 21.6221 22.4159 21.2072 22.001C20.7923 21.586 20.7923 20.9133 21.2072 20.4984L21.4503 20.2553C22.4159 19.2896 23.063 18.6394 23.4818 18.0904C23.882 17.566 23.9724 17.2608 23.9724 16.9997C23.9724 16.7386 23.882 16.4333 23.4818 15.9089C23.063 15.36 22.4159 14.7097 21.4503 13.744L21.2072 13.501C20.7923 13.086 20.7923 12.4133 21.2072 11.9984ZM11.2908 11.9984C11.7057 11.5834 12.3785 11.5834 12.7934 11.9984C13.2083 12.4133 13.2083 13.086 12.7934 13.501L12.5503 13.744C11.5847 14.7097 10.9376 15.36 10.5187 15.9089C10.1186 16.4333 10.0282 16.7386 10.0282 16.9997C10.0282 17.2608 10.1186 17.566 10.5187 18.0904C10.9376 18.6394 11.5847 19.2896 12.5503 20.2553L12.7934 20.4984C13.2083 20.9133 13.2083 21.586 12.7934 22.001C12.3785 22.4159 11.7057 22.4159 11.2908 22.001L10.9956 21.7058C10.0956 20.8058 9.34503 20.0553 8.82932 19.3794C8.28499 18.666 7.9032 17.9122 7.9032 16.9997C7.9032 16.0872 8.28499 15.3334 8.82932 14.6199C9.34503 13.944 10.0956 13.1935 10.9956 12.2935L11.2908 11.9984Z" fill="#00A884"/>
</svg>
