<svg width="34" height="35" viewBox="0 0 34 35" fill="none" xmlns="http://www.w3.org/2000/svg">
<path d="M9.9165 7.34127C9.9165 9.53396 12.3616 11.8438 14.3786 13.3762C15.5107 14.2363 16.0768 14.6663 16.9998 14.6663C17.9229 14.6663 18.489 14.2363 19.621 13.3762C21.6381 11.8438 24.0832 9.53399 24.0832 7.34125C24.0832 3.38851 20.1872 1.91275 16.9998 4.96621C13.8125 1.91275 9.9165 3.38851 9.9165 7.34127Z" fill="#00A884" fill-opacity="0.6"/>
<path d="M9.9165 7.34127C9.9165 9.53396 12.3616 11.8438 14.3786 13.3762C15.5107 14.2363 16.0768 14.6663 16.9998 14.6663C17.9229 14.6663 18.489 14.2363 19.621 13.3762C21.6381 11.8438 24.0832 9.53399 24.0832 7.34125C24.0832 3.38851 20.1872 1.91275 16.9998 4.96621C13.8125 1.91275 9.9165 3.38851 9.9165 7.34127Z" fill="#00A884"/>
<path d="M8.86808 30.8002H8.49984C7.16419 30.8002 6.49637 30.8002 6.08144 30.3853C5.6665 29.9703 5.6665 29.3025 5.6665 27.9669V26.3916C5.6665 25.6571 5.6665 25.2898 5.85517 24.9618C6.04384 24.6338 6.32847 24.4683 6.89773 24.1372C10.6455 21.9575 15.9679 20.7304 19.5202 22.8492C19.7589 22.9915 19.9735 23.1634 20.157 23.3694C20.9476 24.2575 20.8899 25.5978 19.9787 26.3931C19.7863 26.5611 19.5812 26.6884 19.3747 26.7327C19.5444 26.713 19.7071 26.6905 19.8623 26.6657C21.1535 26.4598 22.2373 25.7698 23.2295 25.0203L25.7897 23.0863C26.6923 22.4045 28.0319 22.4044 28.9346 23.086C29.7473 23.6996 29.9958 24.71 29.482 25.5336C28.8828 26.494 28.0386 27.7226 27.2281 28.4734C26.4163 29.2252 25.2078 29.8964 24.2213 30.3726C23.1284 30.9001 21.9211 31.204 20.693 31.4028C18.2024 31.806 15.6066 31.7444 13.1413 31.2365C11.7476 30.9494 10.3001 30.8002 8.86808 30.8002Z" fill="#00A884" fill-opacity="0.6"/>
<path d="M8.86808 30.8002H8.49984C7.16419 30.8002 6.49637 30.8002 6.08144 30.3853C5.6665 29.9703 5.6665 29.3025 5.6665 27.9669V26.3916C5.6665 25.6571 5.6665 25.2898 5.85517 24.9618C6.04384 24.6338 6.32847 24.4683 6.89773 24.1372C10.6455 21.9575 15.9679 20.7304 19.5202 22.8492C19.7589 22.9915 19.9735 23.1634 20.157 23.3694C20.9476 24.2575 20.8899 25.5978 19.9787 26.3931C19.7863 26.5611 19.5812 26.6884 19.3747 26.7327C19.5444 26.713 19.7071 26.6905 19.8623 26.6657C21.1535 26.4598 22.2373 25.7698 23.2295 25.0203L25.7897 23.0863C26.6923 22.4045 28.0319 22.4044 28.9346 23.086C29.7473 23.6996 29.9958 24.71 29.482 25.5336C28.8828 26.494 28.0386 27.7226 27.2281 28.4734C26.4163 29.2252 25.2078 29.8964 24.2213 30.3726C23.1284 30.9001 21.9211 31.204 20.693 31.4028C18.2024 31.806 15.6066 31.7444 13.1413 31.2365C11.7476 30.9494 10.3001 30.8002 8.86808 30.8002Z" fill="#00A884"/>
</svg>
