<svg width="34" height="35" viewBox="0 0 34 35" fill="none" xmlns="http://www.w3.org/2000/svg">
<path fill-rule="evenodd" clip-rule="evenodd" d="M31.1668 17.4997V27.7079C31.1668 29.5266 29.2529 30.7094 27.6263 29.8961C26.3116 29.2387 24.7454 29.3362 23.5223 30.1516C22.1464 31.0688 20.3539 31.0688 18.978 30.1516L18.4784 29.8185C17.5833 29.2217 16.4171 29.2217 15.5219 29.8185L15.0223 30.1516C13.6464 31.0688 11.8539 31.0688 10.478 30.1516C9.25496 29.3362 7.68878 29.2387 6.37403 29.8961C4.74738 30.7094 2.8335 29.5265 2.8335 27.7079V17.4997C2.8335 9.67564 9.17613 3.33301 17.0002 3.33301C24.8242 3.33301 31.1668 9.67564 31.1668 17.4997ZM13.3829 20.8961C12.9114 20.5467 12.246 20.6456 11.8966 21.117C11.5472 21.5884 11.646 22.2538 12.1175 22.6033C13.495 23.6244 15.1798 24.2288 17.0002 24.2288C18.8205 24.2288 20.5053 23.6244 21.8829 22.6033C22.3543 22.2538 22.4532 21.5884 22.1037 21.117C21.7543 20.6456 21.0889 20.5467 20.6175 20.8961C19.5856 21.6609 18.3402 22.1038 17.0002 22.1038C15.6601 22.1038 14.4147 21.6609 13.3829 20.8961ZM22.6668 13.958C22.6668 15.1316 22.0326 16.083 21.2502 16.083C20.4678 16.083 19.8335 15.1316 19.8335 13.958C19.8335 12.7844 20.4678 11.833 21.2502 11.833C22.0326 11.833 22.6668 12.7844 22.6668 13.958ZM12.7502 16.083C13.5326 16.083 14.1668 15.1316 14.1668 13.958C14.1668 12.7844 13.5326 11.833 12.7502 11.833C11.9678 11.833 11.3335 12.7844 11.3335 13.958C11.3335 15.1316 11.9678 16.083 12.7502 16.083Z" fill="#00A884" fill-opacity="0.6"/>
<path fill-rule="evenodd" clip-rule="evenodd" d="M31.1668 17.4997V27.7079C31.1668 29.5266 29.2529 30.7094 27.6263 29.8961C26.3116 29.2387 24.7454 29.3362 23.5223 30.1516C22.1464 31.0688 20.3539 31.0688 18.978 30.1516L18.4784 29.8185C17.5833 29.2217 16.4171 29.2217 15.5219 29.8185L15.0223 30.1516C13.6464 31.0688 11.8539 31.0688 10.478 30.1516C9.25496 29.3362 7.68878 29.2387 6.37403 29.8961C4.74738 30.7094 2.8335 29.5265 2.8335 27.7079V17.4997C2.8335 9.67564 9.17613 3.33301 17.0002 3.33301C24.8242 3.33301 31.1668 9.67564 31.1668 17.4997ZM13.3829 20.8961C12.9114 20.5467 12.246 20.6456 11.8966 21.117C11.5472 21.5884 11.646 22.2538 12.1175 22.6033C13.495 23.6244 15.1798 24.2288 17.0002 24.2288C18.8205 24.2288 20.5053 23.6244 21.8829 22.6033C22.3543 22.2538 22.4532 21.5884 22.1037 21.117C21.7543 20.6456 21.0889 20.5467 20.6175 20.8961C19.5856 21.6609 18.3402 22.1038 17.0002 22.1038C15.6601 22.1038 14.4147 21.6609 13.3829 20.8961ZM22.6668 13.958C22.6668 15.1316 22.0326 16.083 21.2502 16.083C20.4678 16.083 19.8335 15.1316 19.8335 13.958C19.8335 12.7844 20.4678 11.833 21.2502 11.833C22.0326 11.833 22.6668 12.7844 22.6668 13.958ZM12.7502 16.083C13.5326 16.083 14.1668 15.1316 14.1668 13.958C14.1668 12.7844 13.5326 11.833 12.7502 11.833C11.9678 11.833 11.3335 12.7844 11.3335 13.958C11.3335 15.1316 11.9678 16.083 12.7502 16.083Z" fill="#00A884"/>
</svg>
