<svg width="34" height="34" viewBox="0 0 34 34" fill="none" xmlns="http://www.w3.org/2000/svg">
<path fill-rule="evenodd" clip-rule="evenodd" d="M7.32623 4.49322C5.6665 6.15295 5.6665 8.82424 5.6665 14.1668V19.8335C5.6665 25.1761 5.6665 27.8474 7.32623 29.5071C8.98596 31.1668 11.6573 31.1668 16.9998 31.1668C22.3424 31.1668 25.0137 31.1668 26.6734 29.5071C28.3332 27.8474 28.3332 25.1761 28.3332 19.8335V14.1668C28.3332 8.82425 28.3332 6.15295 26.6734 4.49322C25.0137 2.8335 22.3424 2.8335 16.9998 2.8335C11.6573 2.8335 8.98596 2.8335 7.32623 4.49322ZM12.7498 6.021C12.163 6.021 11.6873 6.49669 11.6873 7.0835C11.6873 7.6703 12.163 8.146 12.7498 8.146H21.2498C21.8366 8.146 22.3123 7.6703 22.3123 7.0835C22.3123 6.49669 21.8366 6.021 21.2498 6.021H12.7498ZM16.9998 26.9168C18.5646 26.9168 19.8332 25.6483 19.8332 24.0835C19.8332 22.5187 18.5646 21.2502 16.9998 21.2502C15.435 21.2502 14.1665 22.5187 14.1665 24.0835C14.1665 25.6483 15.435 26.9168 16.9998 26.9168Z" fill="#00A884" fill-opacity="0.6"/>
<path fill-rule="evenodd" clip-rule="evenodd" d="M7.32623 4.49322C5.6665 6.15295 5.6665 8.82424 5.6665 14.1668V19.8335C5.6665 25.1761 5.6665 27.8474 7.32623 29.5071C8.98596 31.1668 11.6573 31.1668 16.9998 31.1668C22.3424 31.1668 25.0137 31.1668 26.6734 29.5071C28.3332 27.8474 28.3332 25.1761 28.3332 19.8335V14.1668C28.3332 8.82425 28.3332 6.15295 26.6734 4.49322C25.0137 2.8335 22.3424 2.8335 16.9998 2.8335C11.6573 2.8335 8.98596 2.8335 7.32623 4.49322ZM12.7498 6.021C12.163 6.021 11.6873 6.49669 11.6873 7.0835C11.6873 7.6703 12.163 8.146 12.7498 8.146H21.2498C21.8366 8.146 22.3123 7.6703 22.3123 7.0835C22.3123 6.49669 21.8366 6.021 21.2498 6.021H12.7498ZM16.9998 26.9168C18.5646 26.9168 19.8332 25.6483 19.8332 24.0835C19.8332 22.5187 18.5646 21.2502 16.9998 21.2502C15.435 21.2502 14.1665 22.5187 14.1665 24.0835C14.1665 25.6483 15.435 26.9168 16.9998 26.9168Z" fill="#00A884"/>
</svg>
