<svg width="34" height="34" viewBox="0 0 34 34" fill="none" xmlns="http://www.w3.org/2000/svg">
<path d="M2.8335 9.20801C2.8335 5.68719 5.68768 2.83301 9.2085 2.83301C12.7293 2.83301 15.5835 5.68719 15.5835 9.20801V13.458C15.5835 13.9521 15.5835 14.1991 15.5292 14.4018C15.3818 14.9517 14.9522 15.3813 14.4022 15.5287C14.1996 15.583 13.9525 15.583 13.4585 15.583H9.2085C5.68768 15.583 2.8335 12.7288 2.8335 9.20801Z" fill="#00A884" fill-opacity="0.6"/>
<path d="M2.8335 9.20801C2.8335 5.68719 5.68768 2.83301 9.2085 2.83301C12.7293 2.83301 15.5835 5.68719 15.5835 9.20801V13.458C15.5835 13.9521 15.5835 14.1991 15.5292 14.4018C15.3818 14.9517 14.9522 15.3813 14.4022 15.5287C14.1996 15.583 13.9525 15.583 13.4585 15.583H9.2085C5.68768 15.583 2.8335 12.7288 2.8335 9.20801Z" fill="#00A884"/>
<path d="M18.4168 20.5413C18.4168 20.0473 18.4168 19.8003 18.4711 19.5976C18.6185 19.0476 19.0481 18.618 19.5981 18.4706C19.8008 18.4163 20.0478 18.4163 20.5418 18.4163H24.7918C28.3126 18.4163 31.1668 21.2705 31.1668 24.7913C31.1668 28.3122 28.3126 31.1663 24.7918 31.1663C21.271 31.1663 18.4168 28.3122 18.4168 24.7913V20.5413Z" fill="#00A884" fill-opacity="0.6"/>
<path d="M18.4168 20.5413C18.4168 20.0473 18.4168 19.8003 18.4711 19.5976C18.6185 19.0476 19.0481 18.618 19.5981 18.4706C19.8008 18.4163 20.0478 18.4163 20.5418 18.4163H24.7918C28.3126 18.4163 31.1668 21.2705 31.1668 24.7913C31.1668 28.3122 28.3126 31.1663 24.7918 31.1663C21.271 31.1663 18.4168 28.3122 18.4168 24.7913V20.5413Z" fill="#00A884"/>
<path d="M2.8335 24.7913C2.8335 21.2705 5.68768 18.4163 9.2085 18.4163H13.0335C13.9261 18.4163 14.3724 18.4163 14.7133 18.5901C15.0132 18.7428 15.257 18.9867 15.4098 19.2865C15.5835 19.6275 15.5835 20.0738 15.5835 20.9663V24.7913C15.5835 28.3122 12.7293 31.1663 9.2085 31.1663C5.68768 31.1663 2.8335 28.3122 2.8335 24.7913Z" fill="#00A884" fill-opacity="0.6"/>
<path d="M2.8335 24.7913C2.8335 21.2705 5.68768 18.4163 9.2085 18.4163H13.0335C13.9261 18.4163 14.3724 18.4163 14.7133 18.5901C15.0132 18.7428 15.257 18.9867 15.4098 19.2865C15.5835 19.6275 15.5835 20.0738 15.5835 20.9663V24.7913C15.5835 28.3122 12.7293 31.1663 9.2085 31.1663C5.68768 31.1663 2.8335 28.3122 2.8335 24.7913Z" fill="#00A884"/>
<path d="M18.4168 9.20801C18.4168 5.68719 21.271 2.83301 24.7918 2.83301C28.3126 2.83301 31.1668 5.68719 31.1668 9.20801C31.1668 12.7288 28.3126 15.583 24.7918 15.583H20.2383C20.0268 15.583 19.9211 15.583 19.8321 15.573C19.0932 15.4897 18.5101 14.9066 18.4269 14.1677C18.4168 14.0788 18.4168 13.973 18.4168 13.7616V9.20801Z" fill="#00A884" fill-opacity="0.6"/>
<path d="M18.4168 9.20801C18.4168 5.68719 21.271 2.83301 24.7918 2.83301C28.3126 2.83301 31.1668 5.68719 31.1668 9.20801C31.1668 12.7288 28.3126 15.583 24.7918 15.583H20.2383C20.0268 15.583 19.9211 15.583 19.8321 15.573C19.0932 15.4897 18.5101 14.9066 18.4269 14.1677C18.4168 14.0788 18.4168 13.973 18.4168 13.7616V9.20801Z" fill="#00A884"/>
</svg>
