<svg width="34" height="34" viewBox="0 0 34 34" fill="none" xmlns="http://www.w3.org/2000/svg">
<path d="M5.73111 7.78003L7.78003 5.73111C9.71177 3.79937 10.6776 2.8335 11.8779 2.8335C13.0781 2.8335 14.044 3.79937 15.9757 5.73111L12.5608 9.14597L5.73111 15.9757L5.73109 15.9757C3.79936 14.044 2.8335 13.0781 2.8335 11.8779C2.8335 10.6776 3.79937 9.71177 5.7311 7.78003L5.73111 7.78003Z" fill="#00A884" fill-opacity="0.6"/>
<path d="M5.73111 7.78003L7.78003 5.73111C9.71177 3.79937 10.6776 2.8335 11.8779 2.8335C13.0781 2.8335 14.044 3.79937 15.9757 5.73111L12.5608 9.14597L5.73111 15.9757L5.73109 15.9757C3.79936 14.044 2.8335 13.0781 2.8335 11.8779C2.8335 10.6776 3.79937 9.71177 5.7311 7.78003L5.73111 7.78003Z" fill="#00A884"/>
<path d="M28.2692 26.2203L26.2203 28.2692C24.2886 30.201 23.3227 31.1668 22.1225 31.1668C20.9222 31.1668 19.9564 30.201 18.0247 28.2692L18.0246 28.2692L24.8544 21.4395L28.2692 18.0246C30.201 19.9564 31.1668 20.9222 31.1668 22.1225C31.1668 23.3227 30.201 24.2886 28.2692 26.2203Z" fill="#00A884" fill-opacity="0.6"/>
<path d="M28.2692 26.2203L26.2203 28.2692C24.2886 30.201 23.3227 31.1668 22.1225 31.1668C20.9222 31.1668 19.9564 30.201 18.0247 28.2692L18.0246 28.2692L24.8544 21.4395L28.2692 18.0246C30.201 19.9564 31.1668 20.9222 31.1668 22.1225C31.1668 23.3227 30.201 24.2886 28.2692 26.2203Z" fill="#00A884"/>
<path d="M16.1503 25.7285L16.1503 25.7285L26.6278 15.251C25.2018 14.6575 23.5128 13.6826 21.9155 12.0853C20.3179 10.4877 19.343 8.79848 18.7495 7.37235L8.27183 17.85L8.27178 17.8501C7.45418 18.6677 7.04535 19.0765 6.69377 19.5273C6.27902 20.059 5.92344 20.6343 5.63331 21.2431C5.38737 21.7592 5.20454 22.3077 4.83887 23.4047L2.91063 29.1894C2.73069 29.7292 2.87119 30.3244 3.27356 30.7268C3.67593 31.1291 4.2711 31.2696 4.81094 31.0897L10.5957 29.1614C11.6926 28.7958 12.2412 28.613 12.7572 28.367C13.366 28.0769 13.9413 27.7213 14.4731 27.3066C14.9238 26.955 15.3327 26.5461 16.1503 25.7285Z" fill="#00A884" fill-opacity="0.6"/>
<path d="M16.1503 25.7285L16.1503 25.7285L26.6278 15.251C25.2018 14.6575 23.5128 13.6826 21.9155 12.0853C20.3179 10.4877 19.343 8.79848 18.7495 7.37235L8.27183 17.85L8.27178 17.8501C7.45418 18.6677 7.04535 19.0765 6.69377 19.5273C6.27902 20.059 5.92344 20.6343 5.63331 21.2431C5.38737 21.7592 5.20454 22.3077 4.83887 23.4047L2.91063 29.1894C2.73069 29.7292 2.87119 30.3244 3.27356 30.7268C3.67593 31.1291 4.2711 31.2696 4.81094 31.0897L10.5957 29.1614C11.6926 28.7958 12.2412 28.613 12.7572 28.367C13.366 28.0769 13.9413 27.7213 14.4731 27.3066C14.9238 26.955 15.3327 26.5461 16.1503 25.7285Z" fill="#00A884"/>
<path d="M29.5351 12.3437C31.7107 10.1681 31.7107 6.64076 29.5351 4.46518C27.3596 2.2896 23.8322 2.2896 21.6567 4.46518L20.4 5.72182C20.4172 5.77378 20.4351 5.82646 20.4536 5.87983C20.9142 7.20745 21.7833 8.94784 23.4181 10.5827C25.053 12.2175 26.7934 13.0866 28.121 13.5472C28.1741 13.5656 28.2265 13.5834 28.2783 13.6005L29.5351 12.3437Z" fill="#00A884" fill-opacity="0.6"/>
<path d="M29.5351 12.3437C31.7107 10.1681 31.7107 6.64076 29.5351 4.46518C27.3596 2.2896 23.8322 2.2896 21.6567 4.46518L20.4 5.72182C20.4172 5.77378 20.4351 5.82646 20.4536 5.87983C20.9142 7.20745 21.7833 8.94784 23.4181 10.5827C25.053 12.2175 26.7934 13.0866 28.121 13.5472C28.1741 13.5656 28.2265 13.5834 28.2783 13.6005L29.5351 12.3437Z" fill="#00A884"/>
</svg>
