<svg width="32" height="26" viewBox="0 0 32 26" fill="none" xmlns="http://www.w3.org/2000/svg">
<path d="M31.3291 3.31323C30.3285 3.74387 29.2765 4.04374 28.1992 4.20544C28.7029 4.11909 29.444 3.21249 29.739 2.84554C30.1872 2.29202 30.5287 1.66013 30.7463 0.981972C30.7463 0.931606 30.7967 0.859653 30.7463 0.823677C30.721 0.809822 30.6925 0.802562 30.6636 0.802562C30.6347 0.802562 30.6062 0.809822 30.5808 0.823677C29.411 1.45716 28.166 1.94065 26.8753 2.26272C26.8303 2.27647 26.7824 2.2777 26.7368 2.26629C26.6912 2.25488 26.6495 2.23126 26.6163 2.19797C26.5158 2.07833 26.4076 1.96537 26.2925 1.85979C25.766 1.38811 25.1687 1.00205 24.5225 0.715749C23.6501 0.357841 22.7078 0.20284 21.7667 0.262449C20.8536 0.320117 19.9621 0.565036 19.1476 0.981972C18.3456 1.42155 17.6408 2.01872 17.0754 2.73761C16.4807 3.47753 16.0513 4.33623 15.8162 5.25594C15.6223 6.13077 15.6004 7.03495 15.7515 7.91818C15.7515 8.06927 15.7515 8.09086 15.622 8.06927C10.4918 7.31378 6.28255 5.49338 2.84323 1.58637C2.69213 1.41369 2.61298 1.41369 2.49066 1.58637C0.994054 3.86006 1.72077 7.45768 3.59153 9.2349C3.84337 9.47235 4.10239 9.70259 4.37581 9.91845C3.51808 9.85756 2.6813 9.62512 1.91504 9.2349C1.77114 9.14136 1.69199 9.19173 1.6848 9.36442C1.6644 9.60382 1.6644 9.84453 1.6848 10.0839C1.83493 11.2313 2.28709 12.3182 2.99505 13.2335C3.703 14.1487 4.64135 14.8596 5.71413 15.2933C5.97564 15.4053 6.24814 15.4897 6.52719 15.5451C5.73314 15.7014 4.91874 15.7258 4.11678 15.6171C3.9441 15.5811 3.87934 15.6746 3.9441 15.8401C5.0018 18.7182 7.29708 19.596 8.98076 20.0853C9.21101 20.1213 9.44125 20.1213 9.70028 20.1789C9.70028 20.1789 9.70028 20.1788 9.65711 20.222C9.16064 21.1286 7.15317 21.7402 6.23218 22.0568C4.55114 22.6606 2.75884 22.8914 0.979664 22.7332C0.69905 22.69 0.634293 22.6972 0.56234 22.7332C0.490388 22.7691 0.56234 22.8483 0.641488 22.9202C1.00125 23.1577 1.36101 23.3663 1.73516 23.5678C2.84902 24.1753 4.02659 24.6579 5.24644 25.0069C11.5638 26.7481 18.6727 25.4673 23.4144 20.7545C27.1415 17.0561 28.4511 11.9547 28.4511 6.84609C28.4511 6.65181 28.6885 6.53669 28.8252 6.43596C29.7682 5.70125 30.5995 4.83357 31.2932 3.86006C31.4133 3.71495 31.4749 3.53018 31.4659 3.34201C31.4659 3.23408 31.4659 3.25567 31.3291 3.31323Z" fill="#00A884" fill-opacity="0.6"/>
<path d="M31.3291 3.31323C30.3285 3.74387 29.2765 4.04374 28.1992 4.20544C28.7029 4.11909 29.444 3.21249 29.739 2.84554C30.1872 2.29202 30.5287 1.66013 30.7463 0.981972C30.7463 0.931606 30.7967 0.859653 30.7463 0.823677C30.721 0.809822 30.6925 0.802562 30.6636 0.802562C30.6347 0.802562 30.6062 0.809822 30.5808 0.823677C29.411 1.45716 28.166 1.94065 26.8753 2.26272C26.8303 2.27647 26.7824 2.2777 26.7368 2.26629C26.6912 2.25488 26.6495 2.23126 26.6163 2.19797C26.5158 2.07833 26.4076 1.96537 26.2925 1.85979C25.766 1.38811 25.1687 1.00205 24.5225 0.715749C23.6501 0.357841 22.7078 0.20284 21.7667 0.262449C20.8536 0.320117 19.9621 0.565036 19.1476 0.981972C18.3456 1.42155 17.6408 2.01872 17.0754 2.73761C16.4807 3.47753 16.0513 4.33623 15.8162 5.25594C15.6223 6.13077 15.6004 7.03495 15.7515 7.91818C15.7515 8.06927 15.7515 8.09086 15.622 8.06927C10.4918 7.31378 6.28255 5.49338 2.84323 1.58637C2.69213 1.41369 2.61298 1.41369 2.49066 1.58637C0.994054 3.86006 1.72077 7.45768 3.59153 9.2349C3.84337 9.47235 4.10239 9.70259 4.37581 9.91845C3.51808 9.85756 2.6813 9.62512 1.91504 9.2349C1.77114 9.14136 1.69199 9.19173 1.6848 9.36442C1.6644 9.60382 1.6644 9.84453 1.6848 10.0839C1.83493 11.2313 2.28709 12.3182 2.99505 13.2335C3.703 14.1487 4.64135 14.8596 5.71413 15.2933C5.97564 15.4053 6.24814 15.4897 6.52719 15.5451C5.73314 15.7014 4.91874 15.7258 4.11678 15.6171C3.9441 15.5811 3.87934 15.6746 3.9441 15.8401C5.0018 18.7182 7.29708 19.596 8.98076 20.0853C9.21101 20.1213 9.44125 20.1213 9.70028 20.1789C9.70028 20.1789 9.70028 20.1788 9.65711 20.222C9.16064 21.1286 7.15317 21.7402 6.23218 22.0568C4.55114 22.6606 2.75884 22.8914 0.979664 22.7332C0.69905 22.69 0.634293 22.6972 0.56234 22.7332C0.490388 22.7691 0.56234 22.8483 0.641488 22.9202C1.00125 23.1577 1.36101 23.3663 1.73516 23.5678C2.84902 24.1753 4.02659 24.6579 5.24644 25.0069C11.5638 26.7481 18.6727 25.4673 23.4144 20.7545C27.1415 17.0561 28.4511 11.9547 28.4511 6.84609C28.4511 6.65181 28.6885 6.53669 28.8252 6.43596C29.7682 5.70125 30.5995 4.83357 31.2932 3.86006C31.4133 3.71495 31.4749 3.53018 31.4659 3.34201C31.4659 3.23408 31.4659 3.25567 31.3291 3.31323Z" fill="#00A884"/>
</svg>
