<svg width="34" height="34" viewBox="0 0 34 34" fill="none" xmlns="http://www.w3.org/2000/svg">
<path d="M12.2765 16.9996C12.2765 14.3917 14.3913 12.277 17.0008 12.277C19.6103 12.277 21.7262 14.3917 21.7262 16.9996C21.7262 19.6075 19.6103 21.7222 17.0008 21.7222C14.3913 21.7222 12.2765 19.6075 12.2765 16.9996ZM9.72205 16.9996C9.72205 21.0173 12.9807 24.274 17.0008 24.274C21.0209 24.274 24.2796 21.0173 24.2796 16.9996C24.2796 12.982 21.0209 9.72524 17.0008 9.72524C12.9807 9.72524 9.72205 12.982 9.72205 16.9996ZM22.8667 9.43681C22.8666 9.77304 22.9662 10.1018 23.153 10.3814C23.3398 10.661 23.6054 10.879 23.9161 11.0078C24.2269 11.1366 24.5689 11.1704 24.8989 11.105C25.2289 11.0395 25.5321 10.8777 25.77 10.64C26.008 10.4024 26.1702 10.0995 26.2359 9.76981C26.3017 9.44007 26.2681 9.09824 26.1395 8.78756C26.0109 8.47687 25.793 8.21128 25.5133 8.02437C25.2337 7.83746 24.9048 7.73763 24.5684 7.73749H24.5677C24.1168 7.7377 23.6843 7.91678 23.3654 8.2354C23.0465 8.55402 22.8671 8.98613 22.8667 9.43681ZM11.2741 28.5309C9.89204 28.468 9.14087 28.238 8.64168 28.0436C7.97987 27.7861 7.50767 27.4794 7.0112 26.9839C6.51473 26.4884 6.20742 26.017 5.9509 25.3556C5.75631 24.8569 5.5261 24.106 5.46328 22.7248C5.39456 21.2315 5.38084 20.7829 5.38084 16.9997C5.38084 13.2166 5.39569 12.7693 5.46328 11.2747C5.52622 9.89354 5.75812 9.14407 5.9509 8.64393C6.20855 7.98252 6.51541 7.5106 7.0112 7.01443C7.50699 6.51826 7.97874 6.21113 8.64168 5.95477C9.14065 5.76029 9.89204 5.53022 11.2741 5.46743C12.7682 5.39875 13.2171 5.38504 17.0008 5.38504C20.7845 5.38504 21.2338 5.39989 22.7293 5.46743C24.1113 5.53033 24.8612 5.7621 25.3616 5.95477C26.0235 6.21113 26.4957 6.51894 26.9921 7.01443C27.4886 7.50992 27.7948 7.98252 28.0524 8.64393C28.247 9.1426 28.4772 9.89354 28.54 11.2747C28.6088 12.7693 28.6225 13.2166 28.6225 16.9997C28.6225 20.7829 28.6088 21.2302 28.54 22.7248C28.4771 24.106 28.2458 24.8567 28.0524 25.3556C27.7948 26.017 27.4879 26.4889 26.9921 26.9839C26.4963 27.479 26.0235 27.7861 25.3616 28.0436C24.8627 28.2381 24.1113 28.4681 22.7293 28.5309C21.2351 28.5996 20.7863 28.6133 17.0008 28.6133C13.2154 28.6133 12.7678 28.5996 11.2741 28.5309ZM11.1567 2.9188C9.64766 2.98748 8.61651 3.22661 7.71599 3.57681C6.78338 3.93846 5.99388 4.42364 5.20495 5.21085C4.41602 5.99806 3.9318 6.78833 3.56993 7.72038C3.21953 8.62093 2.98025 9.6509 2.91153 11.159C2.84167 12.6695 2.82568 13.1524 2.82568 16.9996C2.82568 20.8468 2.84167 21.3298 2.91153 22.8403C2.98025 24.3485 3.21953 25.3783 3.56993 26.2789C3.9318 27.2104 4.41613 28.0016 5.20495 28.7884C5.99377 29.5753 6.78338 30.0598 7.71599 30.4225C8.61821 30.7727 9.64766 31.0118 11.1567 31.0805C12.6689 31.1492 13.1513 31.1663 17.0008 31.1663C20.8503 31.1663 21.3335 31.1503 22.8449 31.0805C24.3541 31.0118 25.3845 30.7727 26.2856 30.4225C27.2177 30.0598 28.0077 29.5756 28.7967 28.7884C29.5856 28.0012 30.0688 27.2104 30.4317 26.2789C30.7821 25.3783 31.0225 24.3484 31.0901 22.8403C31.1588 21.3286 31.1748 20.8468 31.1748 16.9996C31.1748 13.1524 31.1588 12.6695 31.0901 11.159C31.0214 9.65078 30.7821 8.62036 30.4317 7.72038C30.0688 6.7889 29.5844 5.99931 28.7967 5.21085C28.009 4.42239 27.2177 3.93846 26.2868 3.57681C25.3846 3.22661 24.354 2.98635 22.8461 2.9188C21.3347 2.85012 20.8515 2.83301 17.0019 2.83301C13.1524 2.83301 12.6689 2.84899 11.1567 2.9188Z" fill="#00A884" fill-opacity="0.6"/>
<path d="M12.2765 16.9996C12.2765 14.3917 14.3913 12.277 17.0008 12.277C19.6103 12.277 21.7262 14.3917 21.7262 16.9996C21.7262 19.6075 19.6103 21.7222 17.0008 21.7222C14.3913 21.7222 12.2765 19.6075 12.2765 16.9996ZM9.72205 16.9996C9.72205 21.0173 12.9807 24.274 17.0008 24.274C21.0209 24.274 24.2796 21.0173 24.2796 16.9996C24.2796 12.982 21.0209 9.72524 17.0008 9.72524C12.9807 9.72524 9.72205 12.982 9.72205 16.9996ZM22.8667 9.43681C22.8666 9.77304 22.9662 10.1018 23.153 10.3814C23.3398 10.661 23.6054 10.879 23.9161 11.0078C24.2269 11.1366 24.5689 11.1704 24.8989 11.105C25.2289 11.0395 25.5321 10.8777 25.77 10.64C26.008 10.4024 26.1702 10.0995 26.2359 9.76981C26.3017 9.44007 26.2681 9.09824 26.1395 8.78756C26.0109 8.47687 25.793 8.21128 25.5133 8.02437C25.2337 7.83746 24.9048 7.73763 24.5684 7.73749H24.5677C24.1168 7.7377 23.6843 7.91678 23.3654 8.2354C23.0465 8.55402 22.8671 8.98613 22.8667 9.43681ZM11.2741 28.5309C9.89204 28.468 9.14087 28.238 8.64168 28.0436C7.97987 27.7861 7.50767 27.4794 7.0112 26.9839C6.51473 26.4884 6.20742 26.017 5.9509 25.3556C5.75631 24.8569 5.5261 24.106 5.46328 22.7248C5.39456 21.2315 5.38084 20.7829 5.38084 16.9997C5.38084 13.2166 5.39569 12.7693 5.46328 11.2747C5.52622 9.89354 5.75812 9.14407 5.9509 8.64393C6.20855 7.98252 6.51541 7.5106 7.0112 7.01443C7.50699 6.51826 7.97874 6.21113 8.64168 5.95477C9.14065 5.76029 9.89204 5.53022 11.2741 5.46743C12.7682 5.39875 13.2171 5.38504 17.0008 5.38504C20.7845 5.38504 21.2338 5.39989 22.7293 5.46743C24.1113 5.53033 24.8612 5.7621 25.3616 5.95477C26.0235 6.21113 26.4957 6.51894 26.9921 7.01443C27.4886 7.50992 27.7948 7.98252 28.0524 8.64393C28.247 9.1426 28.4772 9.89354 28.54 11.2747C28.6088 12.7693 28.6225 13.2166 28.6225 16.9997C28.6225 20.7829 28.6088 21.2302 28.54 22.7248C28.4771 24.106 28.2458 24.8567 28.0524 25.3556C27.7948 26.017 27.4879 26.4889 26.9921 26.9839C26.4963 27.479 26.0235 27.7861 25.3616 28.0436C24.8627 28.2381 24.1113 28.4681 22.7293 28.5309C21.2351 28.5996 20.7863 28.6133 17.0008 28.6133C13.2154 28.6133 12.7678 28.5996 11.2741 28.5309ZM11.1567 2.9188C9.64766 2.98748 8.61651 3.22661 7.71599 3.57681C6.78338 3.93846 5.99388 4.42364 5.20495 5.21085C4.41602 5.99806 3.9318 6.78833 3.56993 7.72038C3.21953 8.62093 2.98025 9.6509 2.91153 11.159C2.84167 12.6695 2.82568 13.1524 2.82568 16.9996C2.82568 20.8468 2.84167 21.3298 2.91153 22.8403C2.98025 24.3485 3.21953 25.3783 3.56993 26.2789C3.9318 27.2104 4.41613 28.0016 5.20495 28.7884C5.99377 29.5753 6.78338 30.0598 7.71599 30.4225C8.61821 30.7727 9.64766 31.0118 11.1567 31.0805C12.6689 31.1492 13.1513 31.1663 17.0008 31.1663C20.8503 31.1663 21.3335 31.1503 22.8449 31.0805C24.3541 31.0118 25.3845 30.7727 26.2856 30.4225C27.2177 30.0598 28.0077 29.5756 28.7967 28.7884C29.5856 28.0012 30.0688 27.2104 30.4317 26.2789C30.7821 25.3783 31.0225 24.3484 31.0901 22.8403C31.1588 21.3286 31.1748 20.8468 31.1748 16.9996C31.1748 13.1524 31.1588 12.6695 31.0901 11.159C31.0214 9.65078 30.7821 8.62036 30.4317 7.72038C30.0688 6.7889 29.5844 5.99931 28.7967 5.21085C28.009 4.42239 27.2177 3.93846 26.2868 3.57681C25.3846 3.22661 24.354 2.98635 22.8461 2.9188C21.3347 2.85012 20.8515 2.83301 17.0019 2.83301C13.1524 2.83301 12.6689 2.84899 11.1567 2.9188Z" fill="#00A884"/>
<path d="M12.2765 16.9996C12.2765 14.3917 14.3913 12.277 17.0008 12.277C19.6103 12.277 21.7262 14.3917 21.7262 16.9996C21.7262 19.6075 19.6103 21.7222 17.0008 21.7222C14.3913 21.7222 12.2765 19.6075 12.2765 16.9996ZM9.72205 16.9996C9.72205 21.0173 12.9807 24.274 17.0008 24.274C21.0209 24.274 24.2796 21.0173 24.2796 16.9996C24.2796 12.982 21.0209 9.72524 17.0008 9.72524C12.9807 9.72524 9.72205 12.982 9.72205 16.9996ZM22.8667 9.43681C22.8666 9.77304 22.9662 10.1018 23.153 10.3814C23.3398 10.661 23.6054 10.879 23.9161 11.0078C24.2269 11.1366 24.5689 11.1704 24.8989 11.105C25.2289 11.0395 25.5321 10.8777 25.77 10.64C26.008 10.4024 26.1702 10.0995 26.2359 9.76981C26.3017 9.44007 26.2681 9.09824 26.1395 8.78756C26.0109 8.47687 25.793 8.21128 25.5133 8.02437C25.2337 7.83746 24.9048 7.73763 24.5684 7.73749H24.5677C24.1168 7.7377 23.6843 7.91678 23.3654 8.2354C23.0465 8.55402 22.8671 8.98613 22.8667 9.43681ZM11.2741 28.5309C9.89204 28.468 9.14087 28.238 8.64168 28.0436C7.97987 27.7861 7.50767 27.4794 7.0112 26.9839C6.51473 26.4884 6.20742 26.017 5.9509 25.3556C5.75631 24.8569 5.5261 24.106 5.46328 22.7248C5.39456 21.2315 5.38084 20.7829 5.38084 16.9997C5.38084 13.2166 5.39569 12.7693 5.46328 11.2747C5.52622 9.89354 5.75812 9.14407 5.9509 8.64393C6.20855 7.98252 6.51541 7.5106 7.0112 7.01443C7.50699 6.51826 7.97874 6.21113 8.64168 5.95477C9.14065 5.76029 9.89204 5.53022 11.2741 5.46743C12.7682 5.39875 13.2171 5.38504 17.0008 5.38504C20.7845 5.38504 21.2338 5.39989 22.7293 5.46743C24.1113 5.53033 24.8612 5.7621 25.3616 5.95477C26.0235 6.21113 26.4957 6.51894 26.9921 7.01443C27.4886 7.50992 27.7948 7.98252 28.0524 8.64393C28.247 9.1426 28.4772 9.89354 28.54 11.2747C28.6088 12.7693 28.6225 13.2166 28.6225 16.9997C28.6225 20.7829 28.6088 21.2302 28.54 22.7248C28.4771 24.106 28.2458 24.8567 28.0524 25.3556C27.7948 26.017 27.4879 26.4889 26.9921 26.9839C26.4963 27.479 26.0235 27.7861 25.3616 28.0436C24.8627 28.2381 24.1113 28.4681 22.7293 28.5309C21.2351 28.5996 20.7863 28.6133 17.0008 28.6133C13.2154 28.6133 12.7678 28.5996 11.2741 28.5309ZM11.1567 2.9188C9.64766 2.98748 8.61651 3.22661 7.71599 3.57681C6.78338 3.93846 5.99388 4.42364 5.20495 5.21085C4.41602 5.99806 3.9318 6.78833 3.56993 7.72038C3.21953 8.62093 2.98025 9.6509 2.91153 11.159C2.84167 12.6695 2.82568 13.1524 2.82568 16.9996C2.82568 20.8468 2.84167 21.3298 2.91153 22.8403C2.98025 24.3485 3.21953 25.3783 3.56993 26.2789C3.9318 27.2104 4.41613 28.0016 5.20495 28.7884C5.99377 29.5753 6.78338 30.0598 7.71599 30.4225C8.61821 30.7727 9.64766 31.0118 11.1567 31.0805C12.6689 31.1492 13.1513 31.1663 17.0008 31.1663C20.8503 31.1663 21.3335 31.1503 22.8449 31.0805C24.3541 31.0118 25.3845 30.7727 26.2856 30.4225C27.2177 30.0598 28.0077 29.5756 28.7967 28.7884C29.5856 28.0012 30.0688 27.2104 30.4317 26.2789C30.7821 25.3783 31.0225 24.3484 31.0901 22.8403C31.1588 21.3286 31.1748 20.8468 31.1748 16.9996C31.1748 13.1524 31.1588 12.6695 31.0901 11.159C31.0214 9.65078 30.7821 8.62036 30.4317 7.72038C30.0688 6.7889 29.5844 5.99931 28.7967 5.21085C28.009 4.42239 27.2177 3.93846 26.2868 3.57681C25.3846 3.22661 24.354 2.98635 22.8461 2.9188C21.3347 2.85012 20.8515 2.83301 17.0019 2.83301C13.1524 2.83301 12.6689 2.84899 11.1567 2.9188Z" fill="#00A884" fill-opacity="0.6"/>
<path d="M12.2765 16.9996C12.2765 14.3917 14.3913 12.277 17.0008 12.277C19.6103 12.277 21.7262 14.3917 21.7262 16.9996C21.7262 19.6075 19.6103 21.7222 17.0008 21.7222C14.3913 21.7222 12.2765 19.6075 12.2765 16.9996ZM9.72205 16.9996C9.72205 21.0173 12.9807 24.274 17.0008 24.274C21.0209 24.274 24.2796 21.0173 24.2796 16.9996C24.2796 12.982 21.0209 9.72524 17.0008 9.72524C12.9807 9.72524 9.72205 12.982 9.72205 16.9996ZM22.8667 9.43681C22.8666 9.77304 22.9662 10.1018 23.153 10.3814C23.3398 10.661 23.6054 10.879 23.9161 11.0078C24.2269 11.1366 24.5689 11.1704 24.8989 11.105C25.2289 11.0395 25.5321 10.8777 25.77 10.64C26.008 10.4024 26.1702 10.0995 26.2359 9.76981C26.3017 9.44007 26.2681 9.09824 26.1395 8.78756C26.0109 8.47687 25.793 8.21128 25.5133 8.02437C25.2337 7.83746 24.9048 7.73763 24.5684 7.73749H24.5677C24.1168 7.7377 23.6843 7.91678 23.3654 8.2354C23.0465 8.55402 22.8671 8.98613 22.8667 9.43681ZM11.2741 28.5309C9.89204 28.468 9.14087 28.238 8.64168 28.0436C7.97987 27.7861 7.50767 27.4794 7.0112 26.9839C6.51473 26.4884 6.20742 26.017 5.9509 25.3556C5.75631 24.8569 5.5261 24.106 5.46328 22.7248C5.39456 21.2315 5.38084 20.7829 5.38084 16.9997C5.38084 13.2166 5.39569 12.7693 5.46328 11.2747C5.52622 9.89354 5.75812 9.14407 5.9509 8.64393C6.20855 7.98252 6.51541 7.5106 7.0112 7.01443C7.50699 6.51826 7.97874 6.21113 8.64168 5.95477C9.14065 5.76029 9.89204 5.53022 11.2741 5.46743C12.7682 5.39875 13.2171 5.38504 17.0008 5.38504C20.7845 5.38504 21.2338 5.39989 22.7293 5.46743C24.1113 5.53033 24.8612 5.7621 25.3616 5.95477C26.0235 6.21113 26.4957 6.51894 26.9921 7.01443C27.4886 7.50992 27.7948 7.98252 28.0524 8.64393C28.247 9.1426 28.4772 9.89354 28.54 11.2747C28.6088 12.7693 28.6225 13.2166 28.6225 16.9997C28.6225 20.7829 28.6088 21.2302 28.54 22.7248C28.4771 24.106 28.2458 24.8567 28.0524 25.3556C27.7948 26.017 27.4879 26.4889 26.9921 26.9839C26.4963 27.479 26.0235 27.7861 25.3616 28.0436C24.8627 28.2381 24.1113 28.4681 22.7293 28.5309C21.2351 28.5996 20.7863 28.6133 17.0008 28.6133C13.2154 28.6133 12.7678 28.5996 11.2741 28.5309ZM11.1567 2.9188C9.64766 2.98748 8.61651 3.22661 7.71599 3.57681C6.78338 3.93846 5.99388 4.42364 5.20495 5.21085C4.41602 5.99806 3.9318 6.78833 3.56993 7.72038C3.21953 8.62093 2.98025 9.6509 2.91153 11.159C2.84167 12.6695 2.82568 13.1524 2.82568 16.9996C2.82568 20.8468 2.84167 21.3298 2.91153 22.8403C2.98025 24.3485 3.21953 25.3783 3.56993 26.2789C3.9318 27.2104 4.41613 28.0016 5.20495 28.7884C5.99377 29.5753 6.78338 30.0598 7.71599 30.4225C8.61821 30.7727 9.64766 31.0118 11.1567 31.0805C12.6689 31.1492 13.1513 31.1663 17.0008 31.1663C20.8503 31.1663 21.3335 31.1503 22.8449 31.0805C24.3541 31.0118 25.3845 30.7727 26.2856 30.4225C27.2177 30.0598 28.0077 29.5756 28.7967 28.7884C29.5856 28.0012 30.0688 27.2104 30.4317 26.2789C30.7821 25.3783 31.0225 24.3484 31.0901 22.8403C31.1588 21.3286 31.1748 20.8468 31.1748 16.9996C31.1748 13.1524 31.1588 12.6695 31.0901 11.159C31.0214 9.65078 30.7821 8.62036 30.4317 7.72038C30.0688 6.7889 29.5844 5.99931 28.7967 5.21085C28.009 4.42239 27.2177 3.93846 26.2868 3.57681C25.3846 3.22661 24.354 2.98635 22.8461 2.9188C21.3347 2.85012 20.8515 2.83301 17.0019 2.83301C13.1524 2.83301 12.6689 2.84899 11.1567 2.9188Z" fill="#00A884"/>
</svg>
