<svg width="30" height="28" viewBox="0 0 30 28" fill="none" xmlns="http://www.w3.org/2000/svg">
<path d="M14.4944 2.02051C21.1194 2.02051 26.4796 7.3807 26.4796 13.9956C26.4796 20.6105 21.1194 25.9808 14.4944 25.9808C7.86947 25.9808 2.50928 20.6206 2.50928 14.0057C2.50928 7.39074 7.86947 2.02051 14.4944 2.02051Z" fill="#E7BEB1"/>
<path d="M14.4954 26.8337C7.40868 26.8337 1.64697 21.082 1.64697 14.0054C1.64697 6.91866 7.40868 1.16699 14.4954 1.16699C21.5821 1.16699 27.3438 6.91866 27.3438 13.9953C27.3438 21.072 21.5821 26.8337 14.4954 26.8337ZM25.3262 15.7519C24.9548 15.6315 21.9334 14.7381 18.4904 15.2802C19.9258 19.215 20.508 22.4271 20.6184 23.0896C23.0877 21.4333 24.8444 18.8034 25.3262 15.7519ZM18.7815 24.1034C18.6209 23.1398 17.9785 19.7871 16.4427 15.7921C16.4226 15.8021 16.3925 15.8122 16.3724 15.8122C10.1791 17.9703 7.96076 22.2564 7.76 22.658C9.617 24.1034 11.9558 24.9667 14.4954 24.9667C16.0111 24.9767 17.4666 24.6655 18.7815 24.1034ZM6.34467 21.343C6.59561 20.9214 9.60696 15.9427 15.2683 14.1057C15.4088 14.0555 15.5594 14.0154 15.6999 13.9752C15.4289 13.3529 15.1278 12.7306 14.8065 12.1182C9.3259 13.7544 4.00586 13.6841 3.52404 13.6741C3.52404 13.7845 3.51401 13.8949 3.51401 14.0054C3.52404 16.826 4.58805 19.3957 6.34467 21.343ZM3.75491 11.7669C4.24677 11.777 8.76378 11.797 13.9031 10.4319C12.0863 7.19972 10.1189 4.48951 9.83783 4.09803C6.75622 5.54348 4.4676 8.37414 3.75491 11.7669ZM11.9257 3.35524C12.2268 3.75675 14.2244 6.46696 16.0211 9.7694C19.9258 8.30388 21.572 6.09556 21.7728 5.8145C19.8355 4.09803 17.2859 3.0541 14.4954 3.0541C13.612 3.0541 12.7488 3.16452 11.9257 3.35524ZM22.9874 7.07926C22.7565 7.39044 20.9196 9.74932 16.8643 11.4056C17.1152 11.9275 17.3662 12.4595 17.5971 12.9915C17.6774 13.1823 17.7577 13.373 17.838 13.5537C21.4917 13.0919 25.1154 13.8347 25.4767 13.905C25.4466 11.3253 24.5232 8.9463 22.9874 7.07926Z" fill="#00A884" fill-opacity="0.6"/>
<path d="M14.4954 26.8337C7.40868 26.8337 1.64697 21.082 1.64697 14.0054C1.64697 6.91866 7.40868 1.16699 14.4954 1.16699C21.5821 1.16699 27.3438 6.91866 27.3438 13.9953C27.3438 21.072 21.5821 26.8337 14.4954 26.8337ZM25.3262 15.7519C24.9548 15.6315 21.9334 14.7381 18.4904 15.2802C19.9258 19.215 20.508 22.4271 20.6184 23.0896C23.0877 21.4333 24.8444 18.8034 25.3262 15.7519ZM18.7815 24.1034C18.6209 23.1398 17.9785 19.7871 16.4427 15.7921C16.4226 15.8021 16.3925 15.8122 16.3724 15.8122C10.1791 17.9703 7.96076 22.2564 7.76 22.658C9.617 24.1034 11.9558 24.9667 14.4954 24.9667C16.0111 24.9767 17.4666 24.6655 18.7815 24.1034ZM6.34467 21.343C6.59561 20.9214 9.60696 15.9427 15.2683 14.1057C15.4088 14.0555 15.5594 14.0154 15.6999 13.9752C15.4289 13.3529 15.1278 12.7306 14.8065 12.1182C9.3259 13.7544 4.00586 13.6841 3.52404 13.6741C3.52404 13.7845 3.51401 13.8949 3.51401 14.0054C3.52404 16.826 4.58805 19.3957 6.34467 21.343ZM3.75491 11.7669C4.24677 11.777 8.76378 11.797 13.9031 10.4319C12.0863 7.19972 10.1189 4.48951 9.83783 4.09803C6.75622 5.54348 4.4676 8.37414 3.75491 11.7669ZM11.9257 3.35524C12.2268 3.75675 14.2244 6.46696 16.0211 9.7694C19.9258 8.30388 21.572 6.09556 21.7728 5.8145C19.8355 4.09803 17.2859 3.0541 14.4954 3.0541C13.612 3.0541 12.7488 3.16452 11.9257 3.35524ZM22.9874 7.07926C22.7565 7.39044 20.9196 9.74932 16.8643 11.4056C17.1152 11.9275 17.3662 12.4595 17.5971 12.9915C17.6774 13.1823 17.7577 13.373 17.838 13.5537C21.4917 13.0919 25.1154 13.8347 25.4767 13.905C25.4466 11.3253 24.5232 8.9463 22.9874 7.07926Z" fill="#00A884"/>
</svg>
